<svg width="9" height="14" viewBox="0 0 9 14" fill="none" xmlns="http://www.w3.org/2000/svg">
<path d="M8.76488 3.71404L8.32724 5.3788H0.235131L0.681356 3.71404H8.76488ZM4.62014 13.0762L0.483987 8.17629L0.475406 6.70889H2.492C2.9611 6.70889 3.34726 6.61736 3.65046 6.4343C3.95367 6.25123 4.17964 6.00523 4.32838 5.69631C4.47712 5.38166 4.55149 5.03269 4.55149 4.6494C4.55149 4.24894 4.48284 3.89425 4.34554 3.58532C4.20824 3.2764 3.98799 3.03613 3.68479 2.8645C3.38158 2.68716 2.97827 2.59848 2.47483 2.59848H0.243713L0.750006 0.581892H2.47483C3.50458 0.581892 4.36271 0.736355 5.0492 1.04528C5.7357 1.3542 6.25058 1.80043 6.59383 2.38395C6.93708 2.96176 7.1087 3.66256 7.1087 4.48635C7.1087 5.20718 6.99429 5.83933 6.76545 6.38281C6.53662 6.92629 6.17335 7.37537 5.67564 7.73006C5.17792 8.07903 4.52289 8.32503 3.71053 8.46805L7.43479 12.956V13.0762H4.62014ZM8.78204 0.581892L8.33582 2.23807H1.63387L2.0801 0.581892H8.78204Z" fill="url(#paint0_linear_1705_29750)"/>
<defs>
<linearGradient id="paint0_linear_1705_29750" x1="4.8833" y1="-15.2988" x2="16.1086" y2="-12.7909" gradientUnits="userSpaceOnUse">
<stop stop-color="#ff6132"/>
<stop offset="1" stop-color="#ffb872"/>
</linearGradient>
</defs>
</svg>
